<?xml version="1.0" standalone="no"?><!DOCTYPE svg PUBLIC "-//W3C//DTD SVG 1.1//EN" "http://www.w3.org/Graphics/SVG/1.1/DTD/svg11.dtd"><svg t="1755517014363" class="icon" viewBox="0 0 1024 1024" version="1.1" xmlns="http://www.w3.org/2000/svg" p-id="10069" xmlns:xlink="http://www.w3.org/1999/xlink" width="200" height="200"><path d="M468.8 200a94.4 94.4 0 1 0 188.801 0 94.4 94.4 0 1 0-188.801 0z" fill="#FDBF5E" p-id="10070"></path><path d="M16 924.8c0 46.4 36.8 83.2 83.2 83.2h825.6c46.4 0 83.2-36.8 83.2-83.2H16z" fill="#FFFFFF" p-id="10071"></path><path d="M1008 908.8H16c-9.6 0-16 6.399-16 16 0 54.4 44.8 99.2 99.2 99.2h825.6c54.4 0 99.2-44.8 99.2-99.2 0-9.601-6.4-16-16-16zM924.8 992H99.2c-32 0-57.6-22.4-65.6-51.2h956.8c-8 28.8-33.6 51.2-65.6 51.2z" fill="#193651" p-id="10072"></path><path d="M72 419.199h878.4v505.599H72z" fill="#2EA2DB" p-id="10073"></path><path d="M952 940.799H72c-9.601 0-16.001-6.4-16.001-16.001v-505.6c0-9.6 6.4-16 16-16h878.4c9.602 0 16.002 6.4 16.002 16v505.6c1.598 8.002-6.4 16-14.4 16z m-864-32h846.4V435.2H88v473.6z" fill="#193651" p-id="10074"></path><path d="M137.6 483.2h750.399v377.6h-750.4z" fill="#FFFFFF" p-id="10075"></path><path d="M417.6 16H16v256h211.2l112 96v-96h78.4z" fill="#4FBF9F" p-id="10076"></path><path d="M339.2 384c-3.2 0-8-1.6-9.6-3.2L222.4 288H16c-9.6 0-16-6.4-16-16.002V16.001C0 6.4 6.4 0 16 0h401.6c9.601 0 16.001 6.4 16.001 16v256c0 9.601-6.4 16.001-16 16.001H355.2v80c0 6.4-3.201 11.2-9.601 14.4-1.599 1.6-4.8 1.6-6.398 1.6zM32 256h195.199c3.2 0 8 1.6 9.6 3.2l84.8 72V272c0-9.6 6.4-16 16.001-16h62.401V32H32v224z" fill="#193651" p-id="10077"></path><path d="M80 80h273.601v128.001h-273.6z" fill="#FFFFFF" p-id="10078"></path><path d="M123.2 128h31.999v32h-32z m78.399 0h32v32h-32z m76.801 0h32v32h-32z" fill="#193651" p-id="10079"></path><path d="M840 16h-89.6c-17.6 0-32 14.401-32 32v75.201H872v-75.2c0-17.602-14.4-32-32-32z" fill="#F16051" p-id="10080"></path><path d="M872 139.2H718.4c-4.8 0-8.001-1.6-11.2-4.8s-6.4-6.4-6.4-11.199v-75.2C700.8 20.8 721.6 0 748.8 0h89.6c27.2 0 48 20.8 48 48v75.201c1.599 9.6-6.4 16-14.4 16z m-139.2-32h121.6V48c0-9.6-6.4-16-16-16h-89.6c-9.6 0-16 6.4-16 16v59.2z" fill="#193651" p-id="10081"></path><path d="M872 520H716.799L793.6 667.2z" fill="#FDBF5E" p-id="10082"></path><path d="M793.6 683.2c-6.4 0-11.2-3.2-14.4-8L702.4 528c-3.2-4.8-1.6-11.2 0-16.001 3.202-4.8 8.001-8 14.401-8h153.6c4.8 0 11.2 3.2 14.4 8a14.53 14.53 0 0 1 0 16L808.004 675.2c-1.603 4.8-8.003 8-14.403 8zM744 536l51.199 97.6 51.2-97.6h-102.4z" fill="#193651" p-id="10083"></path><path d="M716.799 123.2h153.6v395.199H716.8z" fill="#E1E6E9" p-id="10084"></path><path d="M872 536H718.4c-9.601 0-16.001-6.4-16.001-16V123.2c0-9.602 6.4-16.002 16-16.002H872c4.8 0 8 1.6 11.2 4.8 3.2 3.2 4.799 6.4 4.799 11.2v395.199c0 4.8-1.6 8-4.8 11.2C880 532.798 875.2 536 872 536z m-139.2-32h121.6V140.8H732.8V504z" fill="#193651" p-id="10085"></path><path d="M768 171.2h51.2v299.2H768z" fill="#FFFFFF" p-id="10086"></path><path d="M572.8 224h-19.2v-9.601c0-4.8 0-8 1.6-9.601 1.6-1.6 3.201-4.8 6.4-8l12.8-12.8c3.2-3.201 3.2-6.4 3.2-9.601s-1.6-8-3.2-9.601c-3.201-3.201-6.4-4.8-9.601-4.8-4.8 0-8 1.6-11.2 3.201-3.2 3.201-4.799 6.4-4.799 9.601H528c1.6-9.6 4.8-17.599 11.2-22.4 6.4-4.8 14.4-8.001 23.998-8.001s17.6 3.201 24 8c6.4 4.8 9.6 12.8 9.6 22.401 0 6.4-1.6 12.8-4.799 16.001-1.6 3.201-3.2 4.8-4.8 6.4L582.4 200l-4.8 4.799-3.2 3.2c-1.6 3.202-3.201 6.4-3.201 9.602v6.4h1.6z m-8.001 36.799c-3.201 0-6.4-1.6-9.601-3.201s-3.201-4.8-3.201-8 1.6-6.4 3.201-8c3.201-3.202 4.8-3.202 9.601-3.202 3.201 0 6.4 1.6 9.6 3.201s3.202 4.8 3.202 8-1.6 6.4-3.201 8c-3.201 1.603-6.4 3.202-9.601 3.202z" fill="#193651" p-id="10087"></path><path d="M168 515.2h305.601v206.4h-305.6z" fill="#F16051" p-id="10088"></path><path d="M283.2 574.4v86.4l76.799-43.201z" fill="#FFFFFF" p-id="10089"></path><path d="M560 784h112v75.2H560z" fill="#F16051" p-id="10090"></path><path d="M601.6 806.4v32l28.799-16.001z" fill="#FFFFFF" p-id="10091"></path><path d="M560 680h112v75.2H560z" fill="#F16051" p-id="10092"></path><path d="M601.6 702.4v32l28.799-16z" fill="#FFFFFF" p-id="10093"></path><path d="M560 576h112v75.201H560z" fill="#F16051" p-id="10094"></path><path d="M601.6 598.4v30.4l28.799-14.4z" fill="#FFFFFF" p-id="10095"></path><path d="M734.4 806.4h94.4v32h-94.4z m0-104h94.4v32h-94.4z" fill="#193651" p-id="10096"></path></svg>